<svg xmlns="http://www.w3.org/2000/svg" version="1.1"
    xmlns:xlink="http://www.w3.org/1999/xlink"
    xmlns:svgjs="http://svgjs.dev/svgjs" viewBox="0 0 5.297576397081049 2.300677578483488">
    <g transform="matrix(1,0,0,1,1.3858487454155246,0.770455976741744)">
        <rect width="5.297576397081049" height="5.297576397081049" x="-1.3858487454155246" y="-2.2689053860405246" fill="#f9f9f9"></rect>
        <g transform="matrix(1,0,0,1,0,0)">
            <g clip-path="url(#SvgjsClipPath1015)">
                <path d=" M -1.1 -0.4846072313262195 L 3.62587890625 -0.4846072313262195 L 3.62587890625 1.2443728563262195 L -1.1 1.2443728563262195 Z" fill="#aac527" transform="matrix(1,0,0,1,0,0)" fill-rule="nonzero"></path>
            </g>
        </g>
        <g transform="matrix(1,0,0,1,0,0)">
            <path d=" M 0.05517578125 0.01953125 L 0.6279296875 0.01953125 L 0.6279296875 0.27197265625 L 0.46923828125 0.27197265625 L 0.46923828125 0.16796875 L 0.2939453125 0.16796875 L 0.2939453125 0.32373046875 L 0.44580078125 0.32373046875 L 0.44580078125 0.4658203125 L 0.2939453125 0.4658203125 L 0.2939453125 0.6259765625 L 0.3720703125 0.6259765625 L 0.3720703125 0.759765625 L 0.05517578125 0.759765625 L 0.05517578125 0.6259765625 L 0.1318359375 0.6259765625 L 0.1318359375 0.16796875 L 0.05517578125 0.16796875 L 0.05517578125 0.01953125 M 0.66259765625 0.5048828125 Q 0.66259765625 0.44970703125 0.6826171875 0.4013671875 Q 0.70263671875 0.35302734375 0.73828125 0.31689453125 Q 0.77392578125 0.28076171875 0.8232421875 0.259765625 Q 0.87255859375 0.23876953125 0.931640625 0.23876953125 Q 0.99072265625 0.23876953125 1.040283203125 0.259765625 Q 1.08984375 0.28076171875 1.12548828125 0.31689453125 Q 1.1611328125 0.35302734375 1.180908203125 0.4013671875 Q 1.20068359375 0.44970703125 1.20068359375 0.5048828125 Q 1.20068359375 0.56005859375 1.181396484375 0.608642578125 Q 1.162109375 0.6572265625 1.126708984375 0.693603515625 Q 1.09130859375 0.72998046875 1.041748046875 0.7509765625 Q 0.9921875 0.77197265625 0.931640625 0.77197265625 Q 0.87060546875 0.77197265625 0.821044921875 0.7509765625 Q 0.771484375 0.72998046875 0.736328125 0.69384765625 Q 0.701171875 0.65771484375 0.681884765625 0.609130859375 Q 0.66259765625 0.560546875 0.66259765625 0.5048828125 M 0.80859375 0.5048828125 Q 0.80859375 0.53369140625 0.818359375 0.557861328125 Q 0.828125 0.58203125 0.844970703125 0.599609375 Q 0.86181640625 0.6171875 0.884033203125 0.626953125 Q 0.90625 0.63671875 0.931640625 0.63671875 Q 0.95751953125 0.63671875 0.979736328125 0.627197265625 Q 1.001953125 0.61767578125 1.018310546875 0.60009765625 Q 1.03466796875 0.58251953125 1.0439453125 0.558349609375 Q 1.05322265625 0.5341796875 1.05322265625 0.5048828125 Q 1.05322265625 0.474609375 1.0439453125 0.4501953125 Q 1.03466796875 0.42578125 1.018310546875 0.40869140625 Q 1.001953125 0.3916015625 0.979736328125 0.382568359375 Q 0.95751953125 0.37353515625 0.931640625 0.3740234375 Q 0.90625 0.37353515625 0.884033203125 0.382568359375 Q 0.86181640625 0.3916015625 0.844970703125 0.40869140625 Q 0.828125 0.42578125 0.818359375 0.4501953125 Q 0.80859375 0.474609375 0.80859375 0.5048828125 M 1.27001953125 0.5048828125 Q 1.27001953125 0.44970703125 1.2900390625 0.4013671875 Q 1.31005859375 0.35302734375 1.345703125 0.31689453125 Q 1.38134765625 0.28076171875 1.4306640625 0.259765625 Q 1.47998046875 0.23876953125 1.5390625 0.23876953125 Q 1.59814453125 0.23876953125 1.647705078125 0.259765625 Q 1.697265625 0.28076171875 1.73291015625 0.31689453125 Q 1.7685546875 0.35302734375 1.788330078125 0.4013671875 Q 1.80810546875 0.44970703125 1.80810546875 0.5048828125 Q 1.80810546875 0.56005859375 1.788818359375 0.608642578125 Q 1.76953125 0.6572265625 1.734130859375 0.693603515625 Q 1.69873046875 0.72998046875 1.649169921875 0.7509765625 Q 1.599609375 0.77197265625 1.5390625 0.77197265625 Q 1.47802734375 0.77197265625 1.428466796875 0.7509765625 Q 1.37890625 0.72998046875 1.34375 0.69384765625 Q 1.30859375 0.65771484375 1.289306640625 0.609130859375 Q 1.27001953125 0.560546875 1.27001953125 0.5048828125 M 1.416015625 0.5048828125 Q 1.416015625 0.53369140625 1.42578125 0.557861328125 Q 1.435546875 0.58203125 1.452392578125 0.599609375 Q 1.46923828125 0.6171875 1.491455078125 0.626953125 Q 1.513671875 0.63671875 1.5390625 0.63671875 Q 1.56494140625 0.63671875 1.587158203125 0.627197265625 Q 1.609375 0.61767578125 1.625732421875 0.60009765625 Q 1.64208984375 0.58251953125 1.6513671875 0.558349609375 Q 1.66064453125 0.5341796875 1.66064453125 0.5048828125 Q 1.66064453125 0.474609375 1.6513671875 0.4501953125 Q 1.64208984375 0.42578125 1.625732421875 0.40869140625 Q 1.609375 0.3916015625 1.587158203125 0.382568359375 Q 1.56494140625 0.37353515625 1.5390625 0.3740234375 Q 1.513671875 0.37353515625 1.491455078125 0.382568359375 Q 1.46923828125 0.3916015625 1.452392578125 0.40869140625 Q 1.435546875 0.42578125 1.42578125 0.4501953125 Q 1.416015625 0.474609375 1.416015625 0.5048828125 M 2.1806640625 0 L 2.40185546875 0 L 2.40185546875 0.6259765625 L 2.50048828125 0.6259765625 L 2.50048828125 0.759765625 L 2.25146484375 0.759765625 L 2.25146484375 0.740234375 Q 2.22509765625 0.75390625 2.197509765625 0.76171875 Q 2.169921875 0.76953125 2.1416015625 0.76953125 Q 2.08349609375 0.76953125 2.034912109375 0.748779296875 Q 1.986328125 0.72802734375 1.951416015625 0.69189453125 Q 1.91650390625 0.65576171875 1.89697265625 0.607177734375 Q 1.87744140625 0.55859375 1.87744140625 0.5029296875 Q 1.87744140625 0.447265625 1.896728515625 0.399169921875 Q 1.916015625 0.35107421875 1.950439453125 0.3154296875 Q 1.98486328125 0.27978515625 2.032958984375 0.25927734375 Q 2.0810546875 0.23876953125 2.138671875 0.23876953125 Q 2.17041015625 0.23876953125 2.1982421875 0.244873046875 Q 2.22607421875 0.2509765625 2.25146484375 0.26220703125 L 2.25146484375 0.1337890625 L 2.1806640625 0.1337890625 L 2.1806640625 0 M 2.14990234375 0.634765625 Q 2.18212890625 0.6337890625 2.208251953125 0.6181640625 Q 2.234375 0.6025390625 2.25146484375 0.5771484375 L 2.25146484375 0.42822265625 Q 2.234375 0.40234375 2.207275390625 0.387939453125 Q 2.18017578125 0.37353515625 2.14990234375 0.3740234375 Q 2.12451171875 0.37353515625 2.102294921875 0.3828125 Q 2.080078125 0.39208984375 2.063232421875 0.4091796875 Q 2.04638671875 0.42626953125 2.03662109375 0.4501953125 Q 2.02685546875 0.47412109375 2.02685546875 0.50439453125 Q 2.02685546875 0.5341796875 2.03662109375 0.558349609375 Q 2.04638671875 0.58251953125 2.063232421875 0.599365234375 Q 2.080078125 0.6162109375 2.102294921875 0.625 Q 2.12451171875 0.6337890625 2.14990234375 0.634765625" fill="#f9f9f9" fill-rule="nonzero"></path>
        </g>
        <g transform="matrix(1,0,0,1,0,0)"></g>
    </g>
    <defs>
        <clipPath id="SvgjsClipPath1015">
            <path d=" M -1.1 -0.4846072313262195 h 4.72587890625 v 1.728980087652439 h -4.72587890625 Z"></path>
        </clipPath>
    </defs>
</svg>