<svg xmlns="http://www.w3.org/2000/svg" version="1.1"
    xmlns:xlink="http://www.w3.org/1999/xlink"
    xmlns:svgjs="http://svgjs.dev/svgjs" viewBox="0 0 5.676526673983277 2.4652514024512646">
    <g transform="matrix(1,0,0,1,1.4062962959760137,0.8746257012256323)">
        <rect width="5.676526673983277" height="5.676526673983277" x="-1.4062962959760135" y="-2.4802633369916385" fill="#fffcf7"></rect>
        <g transform="matrix(1,0,0,1,0,0)">
            <g clip-path="url(#SvgjsClipPath1003)">
                <path d=" M -1.0999999999999996 -0.5683294052496188 L 3.9639340820312494 -0.5683294052496188 L 3.9639340820312494 1.2843294052496188 L -1.0999999999999996 1.2843294052496188 Z" fill="#3e7742" transform="matrix(1,0,0,1,0,0)" fill-rule="nonzero"></path>
            </g>
        </g>
        <g transform="matrix(1,0,0,1,0,0)">
            <path d=" M 0.534 0.01100000000000001 L 0.534 0.16699999999999993 L 0.252 0.16699999999999993 L 0.252 0.291 L 0.46 0.291 L 0.46 0.43999999999999995 L 0.252 0.43999999999999995 L 0.252 0.716 L 0.056 0.716 L 0.056 0.01100000000000001 L 0.534 0.01100000000000001 M 0.77097412109375 0.6765 Q 0.68797412109375 0.63 0.63947412109375 0.5475 Q 0.59097412109375 0.46499999999999997 0.59097412109375 0.361 Q 0.59097412109375 0.25699999999999995 0.63947412109375 0.1745 Q 0.68797412109375 0.09199999999999997 0.77097412109375 0.04599999999999993 Q 0.8539741210937499 0 0.95297412109375 0 Q 1.05297412109375 0 1.13547412109375 0.04599999999999993 Q 1.21797412109375 0.09199999999999997 1.26597412109375 0.1745 Q 1.3139741210937501 0.25699999999999995 1.3139741210937501 0.361 Q 1.3139741210937501 0.46499999999999997 1.26597412109375 0.5475 Q 1.21797412109375 0.63 1.13497412109375 0.6765 Q 1.05197412109375 0.723 0.95297412109375 0.723 Q 0.8539741210937499 0.723 0.77097412109375 0.6765 M 1.07147412109375 0.492 Q 1.11497412109375 0.44299999999999995 1.11497412109375 0.361 Q 1.11497412109375 0.27699999999999997 1.07147412109375 0.22849999999999998 Q 1.02797412109375 0.17999999999999994 0.95297412109375 0.17999999999999994 Q 0.8769741210937501 0.17999999999999994 0.83397412109375 0.22849999999999998 Q 0.79097412109375 0.27699999999999997 0.79097412109375 0.361 Q 0.79097412109375 0.44399999999999995 0.83397412109375 0.49249999999999994 Q 0.8769741210937501 0.5409999999999999 0.95297412109375 0.5409999999999999 Q 1.02797412109375 0.5409999999999999 1.07147412109375 0.492 M 1.55596142578125 0.6765 Q 1.47296142578125 0.63 1.42446142578125 0.5475 Q 1.37596142578125 0.46499999999999997 1.37596142578125 0.361 Q 1.37596142578125 0.25699999999999995 1.42446142578125 0.1745 Q 1.47296142578125 0.09199999999999997 1.55596142578125 0.04599999999999993 Q 1.63896142578125 0 1.7379614257812501 0 Q 1.83796142578125 0 1.92046142578125 0.04599999999999993 Q 2.0029614257812502 0.09199999999999997 2.05096142578125 0.1745 Q 2.09896142578125 0.25699999999999995 2.09896142578125 0.361 Q 2.09896142578125 0.46499999999999997 2.05096142578125 0.5475 Q 2.0029614257812502 0.63 1.91996142578125 0.6765 Q 1.8369614257812499 0.723 1.7379614257812501 0.723 Q 1.63896142578125 0.723 1.55596142578125 0.6765 M 1.85646142578125 0.492 Q 1.89996142578125 0.44299999999999995 1.89996142578125 0.361 Q 1.89996142578125 0.27699999999999997 1.85646142578125 0.22849999999999998 Q 1.81296142578125 0.17999999999999994 1.7379614257812501 0.17999999999999994 Q 1.66196142578125 0.17999999999999994 1.61896142578125 0.22849999999999998 Q 1.57596142578125 0.27699999999999997 1.57596142578125 0.361 Q 1.57596142578125 0.44399999999999995 1.61896142578125 0.49249999999999994 Q 1.66196142578125 0.5409999999999999 1.7379614257812501 0.5409999999999999 Q 1.81296142578125 0.5409999999999999 1.85646142578125 0.492 M 2.65844873046875 0.055499999999999994 Q 2.7419487304687498 0.09999999999999998 2.7869487304687497 0.17999999999999994 Q 2.83194873046875 0.25999999999999995 2.83194873046875 0.363 Q 2.83194873046875 0.46499999999999997 2.7864487304687495 0.5449999999999999 Q 2.74094873046875 0.625 2.65744873046875 0.6705 Q 2.5739487304687496 0.716 2.4639487304687497 0.716 L 2.18494873046875 0.716 L 2.18494873046875 0.01100000000000001 L 2.4639487304687497 0.01100000000000001 Q 2.57494873046875 0.01100000000000001 2.65844873046875 0.055499999999999994 M 2.58394873046875 0.496 Q 2.6329487304687498 0.44899999999999995 2.6329487304687498 0.363 Q 2.6329487304687498 0.27599999999999997 2.58394873046875 0.22849999999999998 Q 2.53494873046875 0.18099999999999994 2.4489487304687496 0.18099999999999994 L 2.3809487304687496 0.18099999999999994 L 2.3809487304687496 0.5429999999999999 L 2.4489487304687496 0.5429999999999999 Q 2.53494873046875 0.5429999999999999 2.58394873046875 0.496" fill="#fffcf7" fill-rule="nonzero"></path>
        </g>
        <g transform="matrix(1,0,0,1,0,0)"></g>
    </g>
    <defs>
        <clipPath id="SvgjsClipPath1003">
            <path d=" M -1.0999999999999996 -0.5683294052496188 h 5.063934082031249 v 1.8526588104992376 h -5.063934082031249 Z"></path>
        </clipPath>
    </defs>
</svg>